mtllib unnamed.mtl
# vertices
v -16 0 -8
v -16 0 8
v -16 72 -0
v -16 72 -8
v 16 72 -0
v 16 0 8
v 16 0 -8
v 16 72 -8
v -16 52 4
v -24 52 -12
v -24 28 -12
v -16 28 4
v -18 28 -24
v -18 52 -24
v -16 28 -24
v -16 52 -24
v -16 28 -24
v -16 28 -20
v -16 52 -20
v -16 52 -24
v 16 52 -20
v 16 28 -20
v 16 28 -24
v 16 52 -24

# texture coordinates
vt 0.99999994 -0
vt -0.018750012 -0
vt 0.49062496 1
vt 0.99999994 1
vt 0.984375 3.6391227
vt -0.015625 3.6391227
vt -0.015625 -0
vt 0.984375 -0
vt 0.125 -0.03125
vt -0.125 -0.03125
vt -0.125 0.03125
vt 0.125 0.03125
vt -0.0625 0.02734375
vt -0.3125 0.02734375
vt -0.3125 -0.00390625
vt -0.0625 -0.00390625
vt 2.9802322e-08 -0
vt -1 -0
vt -1 6.0597625
vt 2.9802322e-08 6.0597625
vt -1 1.9999999
vt 0 1.9999999
vt 0 1.0000001
vt -1 1.0000001
vt 1 0.9999999
vt 5.9604645e-08 0.9999999
vt 5.9604645e-08 1.9999999
vt 1 1.9999999
vt -0.4453125 0.21484375
vt -0.4558546 0.27734375
vt -0.447948 0.32421875
vt -0.4453125 0.32421875
vt -0.95408416 1.0000001
vt -1.0137144 1.0000001
vt -1.0137144 2
vt -0.95408416 2
vt -0.3926021 0.25
vt -0.4294994 0.25
vt -0.4294994 0.15625
vt -0.3926021 0.15625
vt 0.1875 0.109375
vt 0.15625 0.109375
vt 0.15625 0.203125
vt 0.1875 0.203125
vt -0.40314418 0.25
vt -0.4453125 0.25
vt -0.4453125 0.15625
vt -0.40314418 0.15625
vt -0.40314418 0.125
vt -0.4453125 0.125
vt -0.4453125 0.140625
vt -0.40314418 0.140625
vt 2.9802322e-08 1.0000001
vt 2.9802322e-08 2
vt 0.5625 0.27734375
vt 0.53125 0.27734375
vt 0.53125 0.18359375
vt 0.5625 0.18359375

# normals
vn -1 0 0
vn 0 0.11043152607484653 0.9938837346736188
vn 0 -1 -0
vn -0 1 -0
vn 0 -0 -1
vn 1 0 0
vn -0.8944271909999159 0 0.4472135954999579
vn -0.8944271909999159 0 -0.4472135954999579
vn -0 0 1

o entity0_brush0
usemtl OBJECT21
f  1/1/1  2/2/1  3/3/1  4/4/1
usemtl OBJECT15
f  5/5/2  3/6/2  2/7/2  6/8/2
usemtl OBJECT19
f  6/9/3  2/10/3  1/11/3  7/12/3
usemtl OBJECT19
f  8/13/4  4/14/4  3/15/4  5/16/4
usemtl OBJECT6
f  7/17/5  1/18/5  4/19/5  8/20/5
usemtl OBJECT21
f  8/4/6  5/3/6  6/2/6  7/1/6

o entity0_brush1
usemtl OBJECT2
f  9/21/7  10/22/7  11/23/7  12/24/7
usemtl OBJECT35
f  13/25/8  11/26/8  10/27/8  14/28/8
usemtl OBJECT19
f  12/29/3  11/30/3  13/31/3  15/32/3
usemtl OBJECT19
f  16/32/4  14/31/4  10/30/4  9/29/4
usemtl OBJECT37
f  15/33/5  13/34/5  14/35/5  16/36/5
usemtl OBJECT19
f  16/37/6  9/38/6  12/39/6  15/40/6

o entity0_brush2
usemtl OBJECT19
f  17/41/1  18/42/1  19/43/1  20/44/1
usemtl OBJECT19
f  21/45/9  19/46/9  18/47/9  22/48/9
usemtl OBJECT19
f  22/49/3  18/50/3  17/51/3  23/52/3
usemtl OBJECT19
f  24/52/4  20/51/4  19/50/4  21/49/4
usemtl OBJECT37
f  23/53/5  17/33/5  20/36/5  24/54/5
usemtl OBJECT19
f  24/55/6  21/56/6  22/57/6  23/58/6

