mtllib SurgeryBed.mtl
# vertices
v -56 0 -27
v -56 0 24
v -56 15.788196860006794 24
v -56 15.78819686000679 -27
v 48 25.261114976010049 -27
v 48 25.261114976010305 24
v 48 0 24
v 48 0 -27
v -52.750000000000909 16.084225551137934 20.8125
v -53.958131655374011 28.604739459862628 11.250000000003638
v -53.958131655374025 28.604739459862753 -14.250000000004476
v -52.750000000000988 16.084225551134942 -23.812499999999979
v 43.541868344636896 37.485600193619121 -14.250000000004581
v 43.541868344636576 37.485600193619099 11.250000000003691
v 44.749999999999716 24.96508628489358 20.812499999999982
v 44.750000000003638 24.965086284890731 -23.812500000000011

# texture coordinates
vt -1 -0.84765613079071045
vt -0.9999997615814209 -0.34765613079071045
vt -0.3103453516960144 -0.34765613079071045
vt -0.31034564971923828 -0.84765613079071045
vt 0.062499992549419403 0.125
vt -0.31954970955848694 0.125
vt -0.31954970955848694 -0.125
vt 0.062499992549419403 -0.125
vt 0.10344827175140381 -0
vt -0.31034499406814575 -1
vt -0.99999940395355225 -1
vt -0.99999874830245972 2.9802322387695312e-08
vt -60 -31
vt 68 -31
vt 68 33
vt -60 33
vt -0.99999797344207764 3.5762786865234375e-07
vt -1.0000002384185791 -0.9999997615814209
vt -0.31034588813781738 -0.99999988079071045
vt 0.10344910621643066 2.0861625671386719e-07
vt -1 -0.84765607118606567
vt -0.99999970197677612 -0.34765607118606567
vt 0.1034473180770874 -0.34765613079071045
vt 0.10344696044921875 -0.84765613079071045
vt -0.36517280340194702 -0.019541144371032715
vt -0.41247671842575073 0.042120218276977539
vt -0.5386279821395874 0.042125880718231201
vt -0.58593755960464478 -0.019531242549419403
vt -0.69237697124481201 1
vt -0.69237709045410156 -0
vt -0.3552156388759613 -0
vt -0.35521554946899414 1
vt -0.32613229751586914 0.99999988079071045
vt -0.32613122463226318 -1.1920928955078125e-07
vt 0.0023194551467895508 -5.9604644775390625e-08
vt 0.0023183822631835938 0.99999994039535522
vt -1.7881393432617188e-06 8.9406967163085938e-08
vt -2.6822090148925781e-07 -0.99999988079071045
vt 0.29675978422164917 -0.9999997615814209
vt 0.29675823450088501 1.7881393432617188e-07
vt -0.23904882371425629 -0.109375
vt 0.23175659775733948 -0.109375
vt 0.23175659775733948 0.109375
vt -0.23904882371425629 0.109375
vt -0.35033142566680908 -0.019541874527931213
vt -0.39763531088829041 0.042119517922401428
vt -0.52378660440444946 0.042125239968299866
vt -0.57109618186950684 -0.019531846046447754

# face normals
vn -1 0 0
vn -0.090710234482487356 0.99587732846979315 -0
vn 0 0 1
vn 0 -1 -0
vn 0 -0 -1
vn 1 0 0
vn -0.99537688831479243 -0.096046083776285221 1.273747268454805e-16
vn -0.090710234482509547 0.99587732846979116 5.1002240941279008e-15
vn -0.054897618485947687 0.60270259413429539 0.79607526937367046
vn -0.0548976184859475 0.60270259413429028 -0.79607526937367445
vn 0.090710234482510685 -0.99587732846979082 1.4271194651140546e-15
vn 0.99537688831486615 0.096046083775523025 -4.7468842302664216e-17

# objects
o entity0_brush0
usemtl OBJECT19
f 1/1/1 2/2/1 3/3/1 4/4/1
usemtl OBJECT19
f 5/5/2 4/6/2 3/7/2 6/8/2
usemtl OBJECT19
f 6/9/3 3/10/3 2/11/3 7/12/3
usemtl OBJECT19
f 7/13/4 2/14/4 1/15/4 8/16/4
usemtl OBJECT19
f 8/17/5 1/18/5 4/19/5 5/20/5
usemtl OBJECT19
f 7/21/6 8/22/6 5/23/6 6/24/6

o entity0_brush1
usemtl OBJECT18
f 9/25/7 10/26/7 11/27/7 12/28/7
usemtl OBJECT18
f 13/29/8 11/30/8 10/31/8 14/32/8
usemtl OBJECT18
f 14/33/9 10/34/9 9/35/9 15/36/9
usemtl OBJECT18
f 16/37/10 12/38/10 11/39/10 13/40/10
usemtl OBJECT18
f 15/41/11 9/42/11 12/43/11 16/44/11
usemtl OBJECT18
f 16/45/12 13/46/12 14/47/12 15/48/12

